<svg width="120" height="27" viewBox="0 0 120 27" fill="none" xmlns="http://www.w3.org/2000/svg">
<g clip-path="url(#clip0_372_25916)">
<path d="M54.2539 23.2C54.2539 21.2983 55.8643 20.1523 57.9857 20.1523C58.6767 20.1372 59.3599 20.301 59.9686 20.6278C60.0201 20.6488 60.0652 20.683 60.0992 20.7271C60.1331 20.7711 60.1548 20.8233 60.1621 20.8784C60.1693 20.9334 60.1618 20.9895 60.1404 21.0407C60.1189 21.092 60.0842 21.1367 60.0398 21.1703L60.0134 21.1926C59.9151 21.2657 59.7981 21.3094 59.676 21.3188C59.5538 21.3282 59.4315 21.3027 59.3232 21.2454C58.9231 21.041 58.4778 20.9403 58.0284 20.9529C56.5381 20.9529 55.5487 21.792 55.5487 23.1614C55.5487 24.5308 56.4302 25.3964 58.0834 25.3964C58.4143 25.3996 58.7436 25.3495 59.0585 25.2481C59.1357 25.2281 59.2048 25.1848 59.2562 25.124C59.3076 25.0632 59.3389 24.988 59.3456 24.9088V24.1184C59.3456 23.9152 59.1176 23.7425 58.8366 23.7425H58.2666C57.9856 23.7425 57.7576 23.5739 57.7576 23.3666C57.7576 23.1634 57.9856 22.9887 58.2666 22.9887H59.9788C60.2597 22.9887 60.4877 23.1573 60.4877 23.3666V25.3456C60.4844 25.4076 60.4648 25.4677 60.4309 25.5198C60.3969 25.5719 60.3498 25.6141 60.2943 25.6422C59.5756 26.0275 58.7686 26.2187 57.9531 26.1969C55.8093 26.201 54.2539 25.1079 54.2539 23.2Z" fill="white"/>
<path d="M62.752 23.1533C62.752 21.278 64.1771 20.1523 66.2333 20.1523C68.2895 20.1523 69.7248 21.278 69.7248 23.1533C69.7248 25.0286 68.2895 26.201 66.2333 26.201C64.1771 26.201 62.752 25.0368 62.752 23.1533ZM68.43 23.1533C68.43 21.7839 67.5607 20.9529 66.2333 20.9529C64.9059 20.9529 64.0468 21.7839 64.0468 23.1533C64.0468 24.5227 64.9059 25.3883 66.2333 25.3883C67.5607 25.3883 68.43 24.5309 68.43 23.1533Z" fill="white"/>
<path d="M71.8252 23.1533C71.8252 21.278 73.2503 20.1523 75.3065 20.1523C77.3628 20.1523 78.798 21.278 78.798 23.1533C78.798 25.0286 77.3628 26.201 75.3065 26.201C73.2503 26.201 71.8252 25.0368 71.8252 23.1533ZM77.5032 23.1533C77.5032 21.7839 76.6339 20.9529 75.3065 20.9529C73.9791 20.9529 73.12 21.7839 73.12 23.1533C73.12 24.5227 73.9791 25.3883 75.3065 25.3883C76.6339 25.3883 77.5032 24.5309 77.5032 23.1533Z" fill="white"/>
<path d="M81.335 20.6459C81.335 20.4427 81.563 20.27 81.8439 20.27H83.4115C85.8709 20.27 87.2797 21.2595 87.2797 23.1592C87.2797 25.059 85.877 26.0972 83.4828 26.0972H81.8541C81.5732 26.0972 81.3451 25.9286 81.3451 25.7213L81.335 20.6459ZM83.324 25.3454C85.0443 25.3454 85.9706 24.6099 85.9706 23.1592C85.9706 21.7085 85.0463 21.0137 83.324 21.0137H83.1062C82.8252 21.0137 82.5972 21.1823 82.5972 21.3895V24.9696C82.5972 25.1727 82.8252 25.3454 83.1062 25.3454H83.324Z" fill="white"/>
<path d="M89.374 23.2002C89.374 21.2984 90.962 20.1525 92.9856 20.1525C93.643 20.1463 94.291 20.3093 94.8668 20.6259C94.9176 20.6475 94.9619 20.6821 94.9951 20.7261C95.0283 20.7702 95.0494 20.8221 95.0562 20.8769C95.063 20.9316 95.0553 20.9871 95.0339 21.0379C95.0124 21.0887 94.978 21.133 94.934 21.1664L94.9055 21.1928C94.8072 21.2657 94.6904 21.3096 94.5683 21.3193C94.4462 21.329 94.3239 21.3042 94.2153 21.2476C93.8441 21.0497 93.4289 20.9483 93.008 20.953C91.6257 20.953 90.6688 21.7922 90.6688 23.1616C90.6688 24.531 91.5605 25.3966 92.9755 25.3966C93.4759 25.4049 93.9689 25.2755 94.4006 25.0227C94.5089 24.9624 94.6326 24.9351 94.7563 24.9441C94.8801 24.9531 94.9984 24.9981 95.0968 25.0735L95.1192 25.0918C95.1619 25.1252 95.1953 25.1689 95.2163 25.2189C95.2372 25.2688 95.245 25.3232 95.2388 25.377C95.2327 25.4308 95.2129 25.4821 95.1813 25.5261C95.1496 25.5701 95.1073 25.6052 95.0582 25.6282C94.4177 26.0234 93.6752 26.2226 92.9225 26.2012C90.9192 26.2012 89.374 25.1081 89.374 23.2002Z" fill="white"/>
<path d="M101.028 24.4351H98.992C98.8936 24.4283 98.7953 24.4498 98.7087 24.4969C98.6222 24.5441 98.5509 24.615 98.5034 24.7012L98.0392 25.8309C97.9917 25.9172 97.9204 25.9881 97.8338 26.0352C97.7473 26.0824 97.649 26.1038 97.5506 26.0971H97.347C96.9989 26.0971 96.7546 25.8451 96.8645 25.6013L99.1772 20.5218C99.2257 20.4385 99.2966 20.3703 99.3818 20.325C99.4671 20.2798 99.5634 20.2593 99.6598 20.2658H100.385C100.481 20.2593 100.577 20.2798 100.662 20.325C100.748 20.3703 100.819 20.4385 100.867 20.5218L103.18 25.6013C103.29 25.8451 103.045 26.0971 102.697 26.0971H102.447C102.348 26.1042 102.25 26.0826 102.163 26.035C102.076 25.9874 102.005 25.9159 101.958 25.8289L101.502 24.7033C101.456 24.6188 101.387 24.5488 101.303 24.5014C101.22 24.454 101.124 24.431 101.028 24.4351ZM100.417 23.7138C100.759 23.7138 101.003 23.472 100.906 23.2302L100.786 22.9295C100.513 22.2956 100.273 21.6475 100.024 20.9892H99.9794C99.7514 21.6556 99.501 22.2956 99.2404 22.9295L99.1162 23.2282C99.0164 23.47 99.2607 23.7138 99.6027 23.7138H100.417Z" fill="white"/>
<path d="M105.855 20.27H106.345C106.428 20.2666 106.511 20.2819 106.588 20.3145C106.664 20.3472 106.732 20.3966 106.787 20.4589L110.024 24.9289V20.6459C110.024 20.4427 110.252 20.27 110.533 20.27H110.71C110.991 20.27 111.219 20.4386 111.219 20.6459V25.7254C111.219 25.9285 110.991 26.1012 110.71 26.1012H110.228C110.144 26.1046 110.061 26.0894 109.985 26.0567C109.908 26.024 109.839 25.9747 109.784 25.9123L106.549 21.4423V25.7213C106.549 25.9245 106.321 26.0972 106.04 26.0972H105.861C105.58 26.0972 105.352 25.9285 105.352 25.7213V20.6418C105.342 20.4386 105.574 20.27 105.855 20.27Z" fill="white"/>
<path d="M113.767 23.2C113.767 21.2982 115.377 20.1523 117.498 20.1523C118.19 20.1374 118.874 20.3012 119.483 20.6277C119.534 20.6494 119.579 20.6841 119.612 20.7282C119.645 20.7723 119.667 20.8244 119.674 20.8792C119.681 20.934 119.673 20.9897 119.652 21.0408C119.631 21.0918 119.596 21.1365 119.553 21.1702L119.528 21.1926C119.429 21.2656 119.312 21.3093 119.19 21.3187C119.067 21.328 118.945 21.3026 118.836 21.2454C118.436 21.0409 117.99 20.9403 117.541 20.9528C116.051 20.9528 115.061 21.7919 115.061 23.1614C115.061 24.5308 115.943 25.3963 117.596 25.3963C117.927 25.3998 118.256 25.3497 118.571 25.248C118.648 25.2281 118.717 25.1848 118.769 25.124C118.82 25.0632 118.852 24.988 118.858 24.9087V24.1183C118.858 23.9152 118.63 23.7425 118.349 23.7425H117.779C117.498 23.7425 117.27 23.5738 117.27 23.3666C117.27 23.1634 117.498 22.9887 117.779 22.9887H119.491C119.772 22.9887 120 23.1573 120 23.3666V25.3456C119.996 25.4087 119.975 25.4695 119.939 25.5216C119.903 25.5738 119.854 25.6154 119.797 25.6422C119.078 26.0275 118.271 26.2187 117.456 26.1969C115.318 26.2009 113.767 25.1078 113.767 23.2Z" fill="white"/>
<path d="M60.6344 7.03914L56.2349 4.11133L55.5264 5.1577L59.9259 8.08348L60.6344 7.03914Z" fill="white"/>
<path d="M47.5228 7.97958C47.8037 7.84548 48.162 7.64839 48.6038 7.39239C49.0456 7.13638 49.5485 6.81536 50.1185 6.43542C50.7265 6.02442 51.3123 5.58154 51.8734 5.10866L51.0591 4.14355C50.5297 4.59524 49.9751 5.0165 49.3978 5.4053C48.8624 5.76492 48.3799 6.06563 47.9727 6.30538C47.5655 6.54513 47.0952 6.79098 46.5781 7.03886L47.079 8.19698C47.0871 8.18479 47.2377 8.11774 47.5228 7.97958Z" fill="white"/>
<path d="M48.5166 11.2205V16.5275H57.2016C57.3926 16.5278 57.5819 16.4903 57.7584 16.4174C57.9349 16.3444 58.0952 16.2374 58.2301 16.1023C58.365 15.9673 58.4718 15.8071 58.5444 15.6307C58.617 15.4544 58.654 15.2654 58.6532 15.0748V11.2144L48.5166 11.2205ZM57.3787 15.0646C57.3787 15.1926 57.3197 15.2556 57.2016 15.2556H49.789V12.4903H57.3787V15.0646Z" fill="white"/>
<path d="M51.1087 7.27881H50.6751C50.6059 7.35805 50.5346 7.43729 50.4593 7.5145C50.1837 7.80588 49.8877 8.07746 49.5737 8.32721C49.1103 8.69029 48.6285 9.02937 48.1303 9.34311C47.6675 9.63162 47.2725 9.8646 46.9454 10.042C46.6176 10.2188 46.4487 10.3062 46.4385 10.3062L46.7133 10.869L46.9861 11.4318C47.0187 11.4216 47.2141 11.32 47.5745 11.127C47.9348 10.934 48.3644 10.68 48.8632 10.3631C49.362 10.0461 49.8811 9.67632 50.4267 9.25371C50.7053 9.03616 50.9711 8.80279 51.2228 8.55477H56.1088L60.0238 11.3851L60.7567 10.3529L56.518 7.28084L51.1087 7.27881Z" fill="white"/>
<path d="M73.3784 15.0949C73.3784 15.2128 73.3153 15.2717 73.185 15.2717H65.235V9.82042H71.6317V11.8624C71.6351 11.8864 71.6328 11.9108 71.6251 11.9338C71.6174 11.9568 71.6045 11.9777 71.5873 11.9948C71.5701 12.012 71.5492 12.0249 71.5261 12.0326C71.5031 12.0403 71.4786 12.0425 71.4545 12.0391H69.2884V13.309H71.4627C71.6548 13.3136 71.8459 13.2782 72.0236 13.2051C72.2013 13.132 72.3618 13.0228 72.4949 12.8844C72.6294 12.7517 72.7359 12.5934 72.808 12.4189C72.88 12.2444 72.9162 12.0572 72.9143 11.8685V8.55664H63.9707V16.5497H73.2013C73.3936 16.5539 73.5847 16.5182 73.7624 16.4447C73.9401 16.3713 74.1005 16.2617 74.2335 16.123C74.3685 15.9906 74.4754 15.8324 74.5478 15.6579C74.6202 15.4834 74.6567 15.296 74.6549 15.1071V13.4004H73.3784V15.0949Z" fill="white"/>
<path d="M64.5452 4.33691H64.1849C64.1143 4.49946 64.039 4.65997 63.9589 4.81845C63.7542 5.23663 63.5272 5.64357 63.2789 6.03753C62.9125 6.61049 62.5657 7.11438 62.2386 7.54918C61.9115 7.98398 61.6346 8.32668 61.408 8.57727C61.182 8.83124 61.0639 8.96127 61.0537 8.97143L61.5057 9.40623L61.9719 9.84104C61.9943 9.81869 62.1286 9.67037 62.3791 9.38998C62.6295 9.10959 62.9226 8.74387 63.2667 8.28875C63.6108 7.83363 63.9752 7.29724 64.362 6.67957C64.5778 6.33823 64.7692 5.9786 64.9728 5.61085H72.1166L74.4375 9.59926L75.5328 8.97143L72.8414 4.34098L64.5452 4.33691Z" fill="white"/>
<path d="M79.8735 6.20414L77.3429 4.09717L76.5225 5.07649L79.0673 7.18346L79.8735 6.20414Z" fill="white"/>
<path d="M90.2761 11.5251V10.2553H89.3091V7.00439H81.5341L81.1636 10.2553H80.3105V11.5251H81.019L80.6485 14.8857H88.0367V15.1925C88.04 15.2165 88.0378 15.241 88.0301 15.264C88.0224 15.287 88.0095 15.3079 87.9923 15.325C87.9751 15.3421 87.9542 15.3551 87.9311 15.3627C87.9081 15.3704 87.8836 15.3727 87.8595 15.3693H86.3611V16.6392H87.8595C88.2435 16.637 88.6112 16.484 88.8829 16.2132C89.1546 15.9424 89.3084 15.5757 89.3111 15.1925V14.8857H90.1153V13.6158H89.3111V11.5251H90.2761ZM88.0367 13.6158H86.2044L84.8668 11.8136L83.8489 12.5695L84.2357 13.0937L84.6225 13.6158H82.0675L82.3077 11.5251H88.0367V13.6158ZM88.0367 10.2553H86.2492L85.0561 8.64609L84.0382 9.40191L84.6673 10.2553H82.4543L82.6783 8.2763H88.0367V10.2553Z" fill="white"/>
<path d="M76.5225 8.45548L79.0673 10.5604L79.8735 9.58109L77.3429 7.47412L76.5225 8.45548Z" fill="white"/>
<path d="M76.0234 16.1088L77.135 16.7041L79.6493 12.0899L78.5377 11.4946L76.0234 16.1088Z" fill="white"/>
<path d="M81.0107 7.48789C81.2896 7.09682 81.5452 6.68976 81.7762 6.26881H90.221V4.99691H82.4053C82.4569 4.89535 82.5024 4.79088 82.5417 4.68402C82.5804 4.58243 82.6191 4.48084 82.6618 4.37112L81.4871 3.90381C81.3177 4.356 81.1184 4.79651 80.8906 5.22244C80.6748 5.61796 80.4787 5.96134 80.3023 6.25256C80.1258 6.54379 79.9134 6.85465 79.665 7.18515L80.1659 7.57119L80.6484 7.97755C80.6708 7.94911 80.7909 7.78859 81.0107 7.48789Z" fill="white"/>
<path d="M109.44 5.60679H116.584L118.905 9.59519L120 8.96737L117.309 4.33691H108.66C108.468 4.77145 108.251 5.19536 108.013 5.60679C107.93 5.75104 107.842 5.89326 107.752 6.03346C107.387 6.60642 107.041 7.11031 106.714 7.54511C106.387 7.97992 106.11 8.32261 105.884 8.5732C105.658 8.82717 105.539 8.95721 105.529 8.96737L105.981 9.40217L106.447 9.83697C106.47 9.81462 106.604 9.6663 106.855 9.38591C107.105 9.10553 107.398 8.73981 107.74 8.28469C108.082 7.82957 108.451 7.29317 108.838 6.67551C109.047 6.33416 109.249 5.97454 109.44 5.60679Z" fill="white"/>
<path d="M117.856 15.0949C117.856 15.2128 117.793 15.2717 117.652 15.2717H109.713V9.82042H116.109V11.8624C116.113 11.8864 116.11 11.9108 116.103 11.9338C116.095 11.9568 116.082 11.9777 116.065 11.9948C116.048 12.012 116.027 12.0249 116.004 12.0326C115.981 12.0403 115.956 12.0425 115.932 12.0391H113.764V13.309H115.938C116.13 13.3136 116.321 13.2782 116.499 13.2051C116.677 13.132 116.837 13.0228 116.97 12.8844C117.105 12.7517 117.211 12.5934 117.284 12.4189C117.356 12.2444 117.392 12.0572 117.39 11.8685V8.55664H108.446V16.5497H117.677C117.869 16.5539 118.06 16.5182 118.238 16.4447C118.416 16.3713 118.576 16.2617 118.709 16.123C118.844 15.9906 118.951 15.8324 119.023 15.6579C119.096 15.4834 119.132 15.296 119.131 15.1071V13.4004H117.856V15.0949Z" fill="white"/>
<path d="M101.081 7.97145V4.14355H99.8086V16.5598H101.081V8.43876L104.772 11.204L105.529 10.2064L101.614 7.26439L101.081 7.97145Z" fill="white"/>
<path d="M94.3787 4.79604C94.4418 4.53191 94.4805 4.38968 94.4907 4.36733L93.2508 4.11133C93.1154 4.63208 92.9509 5.14489 92.7582 5.64736C92.5804 6.10248 92.3496 6.61449 92.066 7.1834C91.7589 7.78647 91.4006 8.36222 90.9951 8.90432L92.013 9.66015C92.3347 9.20909 92.6238 8.77023 92.8763 8.34152C93.1162 7.93971 93.3357 7.52605 93.5338 7.10213H97.288V8.06723C97.2805 8.16253 97.2649 8.25703 97.2411 8.34965C97.1939 8.54075 97.1348 8.72872 97.064 8.91245C96.9765 9.14205 96.8604 9.41227 96.7078 9.72517C96.5375 10.0761 96.3444 10.4154 96.1296 10.7411L94.0347 9.0689L93.2447 10.0665L95.3661 11.7509C94.8345 12.3804 94.2611 12.9737 93.6499 13.5266C92.8677 14.2317 92.0356 14.8795 91.16 15.465L91.8685 16.5114C92.8068 15.8935 93.6958 15.204 94.5273 14.4491C95.1821 13.851 95.7944 13.208 96.3596 12.525C96.8007 11.9963 97.1945 11.4299 97.5363 10.8325C97.7878 10.3943 98.0088 9.9395 98.198 9.4712C98.3216 9.17218 98.4183 8.86281 98.4871 8.54673C98.5299 8.3151 98.5522 8.18304 98.5522 8.15256V5.83226H94.0408C94.1735 5.4937 94.2864 5.14771 94.3787 4.79604Z" fill="white"/>
<path d="M21.7778 0.886806L0.376776 24.2037C0.189804 24.4067 0.0660117 24.6596 0.0204681 24.9316C-0.0250755 25.2036 0.00959539 25.4829 0.120258 25.7356C0.23201 25.9879 0.414875 26.2024 0.64658 26.3528C0.878285 26.5032 1.14883 26.5832 1.42525 26.5829H22.8283C23.2063 26.5829 23.5687 26.433 23.836 26.1663C24.1033 25.8996 24.2534 25.5378 24.2534 25.1606V17.643C24.2537 17.4747 24.2207 17.3081 24.1564 17.1525C24.092 16.997 23.9976 16.8556 23.8785 16.7366C23.7593 16.6175 23.6179 16.523 23.4621 16.4586C23.3064 16.3941 23.1394 16.3609 22.9708 16.3609H16.509C16.1688 16.3609 15.8426 16.4958 15.602 16.7358C15.3615 16.9759 15.2264 17.3015 15.2264 17.641C15.2264 17.9804 15.3615 18.306 15.602 18.5461C15.8426 18.7861 16.1688 18.921 16.509 18.921H21.4052V22.3161C21.4052 22.6933 21.2551 23.0551 20.9878 23.3218C20.7206 23.5885 20.3581 23.7384 19.9801 23.7384H7.89523C7.68842 23.7387 7.484 23.6941 7.29619 23.6077C7.10837 23.5213 6.94165 23.3951 6.8076 23.238C6.67356 23.0808 6.57539 22.8964 6.51993 22.6976C6.46446 22.4987 6.45302 22.2902 6.48641 22.0865C6.53282 21.8136 6.65806 21.5601 6.84676 21.3571L18.9296 8.19516C19.123 7.98216 19.3764 7.83262 19.6566 7.76625C19.9369 7.69987 20.2306 7.71978 20.4993 7.82334C20.7672 7.9284 20.997 8.11197 21.1583 8.34989C21.3197 8.58781 21.405 8.86891 21.4032 9.1562V12.3847C21.4032 12.7619 21.5533 13.1237 21.8206 13.3904C22.0879 13.6571 22.4503 13.807 22.8283 13.807C23.2063 13.807 23.5687 13.6571 23.836 13.3904C24.1033 13.1237 24.2534 12.7619 24.2534 12.3847V1.84581C24.2508 1.56164 24.163 1.28475 24.0012 1.05087C23.8395 0.816985 23.6112 0.636824 23.3459 0.533621C23.0806 0.430418 22.7904 0.408905 22.5127 0.471857C22.235 0.534809 21.9826 0.679338 21.788 0.886806H21.7778Z" fill="white"/>
<path d="M50.396 24.2017L43.6226 16.8162C43.3618 16.5624 43.0136 16.418 42.6494 16.4125C42.2852 16.407 41.9327 16.5408 41.6644 16.7866C41.396 17.0323 41.2321 17.3713 41.2063 17.7339C41.1805 18.0964 41.2948 18.4551 41.5257 18.7362L43.9341 21.3511C44.1214 21.5548 44.2458 21.8081 44.2924 22.0806C44.3258 22.2843 44.3144 22.4928 44.2589 22.6916C44.2035 22.8904 44.1053 23.0748 43.9712 23.232C43.8372 23.3892 43.6705 23.5154 43.4827 23.6018C43.2948 23.6882 43.0904 23.7328 42.8836 23.7324H30.7926C30.4147 23.7324 30.0522 23.5826 29.7849 23.3158C29.5176 23.0491 29.3675 22.6874 29.3675 22.3102V9.1543C29.3658 8.86483 29.4517 8.58158 29.6138 8.34158C29.7352 8.16552 29.8948 8.01902 30.0807 7.91296C30.2666 7.80691 30.4741 7.74403 30.6877 7.729C30.9013 7.71397 31.1155 7.74717 31.3145 7.82614C31.5135 7.90511 31.6921 8.02781 31.837 8.18513L36.5765 13.3418C36.7095 13.4864 36.871 13.6019 37.0509 13.6811C37.2684 13.7758 37.5061 13.8154 37.7426 13.7962C37.9792 13.7771 38.2073 13.6998 38.4068 13.5714C38.5799 13.4579 38.7261 13.3081 38.8353 13.1325C38.9445 12.9568 39.014 12.7595 39.039 12.5543C39.064 12.3491 39.0439 12.141 38.9801 11.9443C38.9162 11.7477 38.8102 11.5673 38.6694 11.4157L28.997 0.880843C28.8521 0.723145 28.6733 0.600113 28.4742 0.520917C28.275 0.441721 28.0604 0.408401 27.8466 0.423438C27.6327 0.438476 27.425 0.501484 27.2389 0.607768C27.0528 0.714051 26.8931 0.86087 26.7718 1.03729C26.6091 1.27325 26.5231 1.55344 26.5254 1.83985V25.1608C26.5254 25.538 26.6756 25.8997 26.9428 26.1664C27.2101 26.4332 27.5726 26.583 27.9505 26.583H49.3434C49.619 26.5823 49.8885 26.5019 50.1192 26.3515C50.3499 26.2011 50.532 25.9872 50.6434 25.7356C50.7548 25.484 50.7907 25.2056 50.7468 24.9341C50.7029 24.6626 50.581 24.4096 50.396 24.2058V24.2017Z" fill="white"/>
</g>
<defs>
<clipPath id="clip0_372_25916">
<rect width="120" height="26.1654" fill="white" transform="translate(0 0.41748)"/>
</clipPath>
</defs>
</svg>
