<svg xmlns="http://www.w3.org/2000/svg" width="1024" height="1024" viewBox="0 0 1024 1024" fill="none">
  <g fill="#07387D">
    <rect x="416" y="256" width="96" height="160"/>
    <rect x="384" y="320" width="32" height="64"/>
    <rect x="352" y="352" width="32" height="64"/>
    <rect x="320" y="384" width="32" height="64"/>
    <rect x="288" y="416" width="32" height="96"/>
    <rect x="448" y="416" width="64" height="96"/>
    <rect x="256" y="448" width="32" height="96"/>
    <rect x="224" y="480" width="32" height="96"/>
    <rect x="192" y="512" width="32" height="96"/>
    <rect x="160" y="544" width="32" height="96"/>
    <rect x="128" y="576" width="32" height="96"/>
    <rect x="320" y="576" width="192" height="32"/>
    <rect x="96" y="608" width="32" height="160"/>
    <rect x="416" y="608" width="96" height="32"/>
    <rect x="64" y="640" width="32" height="128"/>
    <rect x="448" y="640" width="64" height="128"/>
    <rect x="32" y="704" width="32" height="64"/>
    <rect x="128" y="704" width="32" height="64"/>
    <rect x="416" y="704" width="32" height="64"/>
    <rect x="0" y="736" width="32" height="32"/>
    <rect x="160" y="736" width="256" height="32"/>
  </g>
  <g fill="#DB4614">
    <rect x="512" y="256" width="96" height="160"/>
    <rect x="608" y="320" width="32" height="64"/>
    <rect x="640" y="352" width="32" height="64"/>
    <rect x="672" y="384" width="32" height="64"/>
    <rect x="512" y="416" width="64" height="352"/>
    <rect x="704" y="416" width="32" height="96"/>
    <rect x="736" y="448" width="32" height="64"/>
    <rect x="832" y="576" width="64" height="64"/>
    <rect x="896" y="608" width="32" height="160"/>
    <rect x="864" y="640" width="32" height="32"/>
    <rect x="928" y="640" width="32" height="128"/>
    <rect x="576" y="704" width="32" height="64"/>
    <rect x="864" y="704" width="32" height="64"/>
    <rect x="960" y="704" width="32" height="64"/>
    <rect x="608" y="736" width="256" height="32"/>
    <rect x="992" y="736" width="32" height="32"/>
  </g>
</svg>
